<svg width="48" height="48" viewBox="0 0 48 48" fill="none" xmlns="http://www.w3.org/2000/svg">
<path fill-rule="evenodd" clip-rule="evenodd" d="M33.7856 14.6068C35.6187 16.0881 37.0603 17.9968 37.9836 20.1652C39.4562 20.1932 40.859 20.7979 41.8906 21.8492C42.9221 22.9005 43.5 24.3146 43.5 25.7875C43.5 27.2604 42.9221 28.6745 41.8906 29.7258C40.859 30.7771 39.4562 31.3818 37.9836 31.4098C36.8795 34.0059 35.0362 36.22 32.6831 37.7764C30.3301 39.3327 27.5712 40.1625 24.75 40.1625C21.9288 40.1625 19.1699 39.3327 16.8169 37.7764C14.4638 36.22 12.6205 34.0059 11.5164 31.4098C10.0438 31.3818 8.64095 30.7771 7.60941 29.7258C6.57788 28.6745 6 27.2604 6 25.7875C6 24.3146 6.57788 22.9005 7.60941 21.8492C8.64095 20.7979 10.0438 20.1932 11.5164 20.1652C12.6158 17.5797 14.4486 15.3729 16.7883 13.8174C19.1281 12.262 21.8722 11.4262 24.6818 11.4131L27.44 7L29.56 8.325L27.4697 11.6695C29.7837 12.1169 31.9524 13.1256 33.7856 14.6068ZM37.9361 28.9102C38.7538 28.8963 39.5331 28.5606 40.1048 27.9758C40.5325 27.5404 40.8233 26.9893 40.9412 26.3905C41.0591 25.7918 40.999 25.1715 40.7683 24.6066C40.5376 24.0416 40.1464 23.5566 39.643 23.2115C39.1397 22.8664 38.5463 22.6763 37.9361 22.6648L36.3169 22.634L35.6831 21.1438C34.7711 18.9988 33.2483 17.1695 31.3043 15.8835C29.3602 14.5976 27.0809 13.912 24.75 13.912C22.4192 13.912 20.1398 14.5976 18.1958 15.8835C16.2518 17.1695 14.7289 18.9988 13.817 21.1438L13.183 22.634L11.5639 22.6648C10.7458 22.6801 9.96643 23.0158 9.39329 23.5998C8.82016 24.1837 8.49907 24.9693 8.49907 25.7875C8.49907 26.6057 8.82016 27.3913 9.39329 27.9752C9.96643 28.5592 10.7458 28.8949 11.5639 28.9102L13.183 28.941L13.817 30.4312C14.7289 32.5762 16.2517 34.4056 18.1958 35.6915C20.1398 36.9775 22.4192 37.6631 24.75 37.6631C27.0809 37.6631 29.3603 36.9775 31.3043 35.6915C33.2483 34.4056 34.7712 32.5762 35.6831 30.4312L36.3169 28.941L37.9361 28.9102ZM21 22.6625H17.875V25.7875H21V22.6625ZM28.5 22.6625H31.625V25.7875H28.5V22.6625ZM27.1418 34.0618C26.3835 34.3758 25.5708 34.5375 24.75 34.5375C23.0924 34.5375 21.5027 33.879 20.3306 32.7069C19.7502 32.1266 19.2898 31.4376 18.9758 30.6793C18.6617 29.921 18.5 29.1083 18.5 28.2875H31C31 29.1083 30.8383 29.921 30.5242 30.6793C30.2102 31.4376 29.7498 32.1266 29.1694 32.7069C28.5891 33.2873 27.9001 33.7477 27.1418 34.0618Z" fill="#232F3E"/>
</svg>
