<svg width="48" height="48" viewBox="0 0 48 48" fill="none" xmlns="http://www.w3.org/2000/svg">
<path d="M33.1167 13.4706C32.9262 14.2106 32.5164 14.8625 31.9608 15.3529H35.1176C36.1572 15.3529 37 16.1957 37 17.2353C37 18.2749 36.1572 19.1176 35.1176 19.1176H6.88235C5.84276 19.1176 5 18.2749 5 17.2353C5 16.1957 5.84276 15.3529 6.88235 15.3529H26.0392C25.2577 14.6631 24.7647 13.6538 24.7647 12.5294V6.88235C24.7647 6.36256 25.1861 5.94118 25.7059 5.94118H32.2941C32.8139 5.94118 33.2353 6.36256 33.2353 6.88235V7.82353H34.1765C35.7359 7.82353 37 9.08767 37 10.6471C37 12.2065 35.7359 13.4706 34.1765 13.4706H33.1167ZM33.2353 11.5882H34.1765C34.6963 11.5882 35.1176 11.1669 35.1176 10.6471C35.1176 10.1273 34.6963 9.70588 34.1765 9.70588H33.2353V11.5882ZM13.4706 30.4118V22.8824C13.4706 22.3626 13.892 21.9412 14.4118 21.9412C14.9316 21.9412 15.3529 22.3626 15.3529 22.8824V32.7647C15.3529 35.1038 13.4567 37 11.1176 37C8.77856 37 6.88235 35.1038 6.88235 32.7647V31.3529C6.88235 30.8331 7.30373 30.4118 7.82353 30.4118H13.4706ZM21.0164 27.7642C21.0056 27.7072 21 27.6484 21 27.5882V22.8824C21 22.3626 21.4214 21.9412 21.9412 21.9412C22.461 21.9412 22.8824 22.3626 22.8824 22.8824V27.5882C22.8824 27.6484 22.8767 27.7072 22.8659 27.7642C24.296 28.3298 25.2353 30.1873 25.2353 32.2941C25.2353 34.8273 23.8774 37 21.9412 37C20.005 37 18.6471 34.8273 18.6471 32.2941C18.6471 30.1873 19.5864 28.3298 21.0164 27.7642ZM30.4282 27.7642C30.4174 27.7072 30.4118 27.6484 30.4118 27.5882V22.8824C30.4118 22.3626 30.8331 21.9412 31.3529 21.9412C31.8727 21.9412 32.2941 22.3626 32.2941 22.8824V27.5882C32.2941 27.6484 32.2885 27.7072 32.2777 27.7642C33.7078 28.3298 34.6471 30.1873 34.6471 32.2941C34.6471 34.8273 33.2891 37 31.3529 37C29.4167 37 28.0588 34.8273 28.0588 32.2941C28.0588 30.1873 28.9981 28.3298 30.4282 27.7642ZM8.76471 10.1765H21C21.5198 10.1765 21.9412 10.5978 21.9412 11.1176C21.9412 12.677 20.677 13.9412 19.1176 13.9412H10.6471C9.08767 13.9412 7.82353 12.677 7.82353 11.1176C7.82353 10.5978 8.24491 10.1765 8.76471 10.1765ZM8.76471 5H21C21.5198 5 21.9412 5.42138 21.9412 5.94118C21.9412 7.50057 20.677 8.76471 19.1176 8.76471H10.6471C9.08767 8.76471 7.82353 7.50057 7.82353 5.94118C7.82353 5.42138 8.24491 5 8.76471 5Z" fill="#232F3E"/>
</svg>
