<svg width="48" height="48" viewBox="0 0 48 48" fill="none" xmlns="http://www.w3.org/2000/svg">
<path d="M19.1891 21.9366C18.226 21.6226 14.0981 20.2761 12.0501 19.5898C11.0115 22.2685 5.52515 36.7619 7.41578 39.2542C9.50022 42.0029 16.9872 38.781 19.167 39.2542C21.3471 39.7288 21.0783 38.2139 21.0783 38.2139L19.1891 21.9366Z" fill="#232F3E"/>
<path d="M24.6791 13.7964C24.1074 13.0152 20.8546 13.1804 20.8546 13.1804C20.8546 13.1804 20.0292 11.4095 19.4975 11.0817C18.876 10.7001 17.1401 10.7678 17.1401 10.7678C17.1401 10.7678 17.3017 8.20319 16.5191 8.01215C15.0257 7.64709 13.0394 15.6115 12.4147 18.293C14.0958 18.9748 17.2441 20.1905 19.0211 20.4865L19.0036 20.3355C19.0036 20.3355 19.0652 19.0406 19.9293 18.7317C20.5103 18.5241 23.3842 17.9344 24.187 17.1279C24.7795 16.5313 25.1777 14.4758 24.6791 13.7964Z" fill="#232F3E"/>
<path d="M27.3293 26.593C28.6127 26.2058 30.6111 25.4969 32.26 24.4418C32.1961 23.5837 32.4727 22.6267 32.5901 22.0429C32.7747 21.1177 32.5284 20.5892 32.0345 19.2662C31.9456 19.0282 31.5433 16.3867 30.7395 16.3048C29.9468 16.2242 28.8885 18.8956 28.8885 18.8956C28.8885 18.8956 26.6052 18.8956 26.3322 19.9139C26.004 21.137 24.7422 21.8022 24.6929 21.9808C24.5033 22.6695 24.837 24.5398 25.9345 24.8253C26.6038 24.9997 27.0886 25.8702 27.3293 26.593Z" fill="#232F3E"/>
<path d="M32.8198 25.7501C32.714 25.6525 32.6288 25.5429 32.5561 25.4265C31.669 25.908 29.0027 27.3203 27.5236 27.7249C28.128 30.5726 27.7828 37.7632 27.8007 38.0712C27.8256 38.5278 27.5277 38.8118 27.7487 39.176C28.0857 39.733 28.7476 39.7855 29.5288 39.6441C30.3105 39.5005 36.1288 41.1136 39.7742 39.5889C44.2465 36.8954 36.7857 27.3056 32.8198 25.7501Z" fill="#232F3E"/>
<path d="M7.2257 38.3538C4.11884 35.9647 4.0903 30.4663 3.29621 32.1272C2.55368 33.6804 3.27964 37.4285 4.66757 39.0743C5.94272 40.586 8.5722 40.5138 8.6767 39.5659" fill="#232F3E"/>
<path d="M41.1318 36.524C42.3526 37.2923 44.571 34.0188 42.7315 32.9149C41.5733 32.2202 41.4453 32.0089 41.1184 31.4699C40.3322 30.1772 41.362 26.5626 43.3451 26.0972C44.8191 25.752 44.9149 27.1058 44.1051 27.5478C42.1823 28.6908 42.0212 30.6095 43.3299 31.5449C44.0697 32.0738 44.5913 32.4509 44.9135 33.6298C45.3688 35.2926 44.0025 37.9377 41.3772 38.7695C41.3772 38.7695 39.9169 39.0978 39.6476 38.4998" fill="#232F3E"/>
</svg>
