<svg width="48" height="48" viewBox="0 0 48 48" fill="none" xmlns="http://www.w3.org/2000/svg">
<path fill-rule="evenodd" clip-rule="evenodd" d="M43.9631 27.4648L43.2472 24.2223C42.9946 23.001 41.9418 22.1167 40.7206 22.0325L34.6988 21.4851L30.0666 16.9371C28.8032 15.6738 27.1188 15 25.3502 15H22.7393C18.2756 15 13.9381 16.516 10.4008 19.2532L10.064 19.4637C8.96907 20.306 7.83208 21.1061 6.65298 21.8219L4.58955 23.0853C4.21055 23.2958 4 23.7169 4 24.0959V28.1807C4 28.8544 4.54744 29.3598 5.1791 29.3598H7.83208C7.83208 26.9173 9.81129 24.9381 12.2537 24.9381C14.6961 24.9381 16.6753 26.9173 16.6753 29.3598H31.2036C31.2457 26.9173 33.267 24.9381 35.7094 24.9381C38.1518 24.9381 40.1732 26.9173 40.1732 29.3598H42.4471C43.4578 29.3598 44.1737 28.4333 43.9631 27.4648ZM19.202 21.1903H12.5064C14.4856 19.7164 16.8017 18.7057 19.202 18.2004V21.1903ZM22.0655 21.1903V17.8635C22.166 17.8635 22.2665 17.8539 22.3715 17.8439C22.4866 17.8329 22.6072 17.8214 22.7393 17.8214H25.3923C26.4029 17.8214 27.3715 18.2004 28.1295 18.9163L30.4035 21.1903H22.0655ZM12.2958 32.3917C13.9703 32.3917 15.3277 31.0342 15.3277 29.3597C15.3277 27.6852 13.9703 26.3278 12.2958 26.3278C10.6213 26.3278 9.26379 27.6852 9.26379 29.3597C9.26379 31.0342 10.6213 32.3917 12.2958 32.3917ZM38.7414 29.3597C38.7414 31.0342 37.384 32.3917 35.7094 32.3917C34.0349 32.3917 32.6775 31.0342 32.6775 29.3597C32.6775 27.6852 34.0349 26.3278 35.7094 26.3278C37.384 26.3278 38.7414 27.6852 38.7414 29.3597Z" fill="#232F3E"/>
</svg>
