<svg width="49" height="48" viewBox="0 0 49 48" fill="none" xmlns="http://www.w3.org/2000/svg">
<path fill-rule="evenodd" clip-rule="evenodd" d="M44.2656 14.3197C44.2569 14.3061 44.2463 14.2942 44.2352 14.284C44.2044 14.2552 44.1641 14.2355 44.1198 14.2302L44.1046 14.2289C38.5868 13.9509 30.4833 14.7936 29.257 14.9267L28.687 13.4684C27.4501 10.3033 23.694 8.69468 20.3117 9.88482L19.5491 10.153C17.8435 10.7526 16.5015 11.9493 15.77 13.5226C15.0924 14.9801 15.0288 16.601 15.5914 18.0868L16.1425 19.5414C15.0871 20.2207 8.37049 24.5849 4.36805 28.2046C4.30439 28.2625 4.28304 28.3537 4.31548 28.4338C4.34669 28.5114 4.42226 28.5623 4.50603 28.5623H4.51219C4.58406 28.5603 10.0263 28.3566 17.2838 25.3591C17.2193 26.3205 16.9725 27.4001 16.3511 28.4535C15.9914 29.0634 15.515 29.5935 14.9815 30.0588C13.6341 31.235 9.59143 35.2526 11.7602 39.4777C11.7602 39.4777 11.8838 36.8847 13.9434 35.557C14.4846 35.2083 15.1134 35.0198 15.7532 34.9463L17.0086 34.8017C17.0086 34.8017 17.9971 34.6543 19.0246 34.2251C19.9975 33.8186 20.7084 32.9726 20.9425 31.9442C21.1827 30.888 21.3047 29.2223 20.8727 26.7541C21.3992 27.1283 21.9963 27.4486 22.6513 27.704C22.9109 27.8071 23.2164 27.8572 23.5856 27.8572C23.9548 27.8572 24.2608 27.8071 24.5191 27.7044C25.0899 27.4818 25.6139 27.2092 26.087 26.897L25.926 30.1299C25.926 30.1299 25.8542 32.0481 26.6287 33.2161C27.4036 34.3841 29.2735 34.3746 29.2735 34.3746C29.2735 34.3746 27.6948 33.6112 27.3995 31.9171C27.2028 30.7878 27.4739 29.8465 27.6763 29.3447C27.7597 29.1381 27.8414 28.9315 27.919 28.7233C28.1125 28.2075 28.3227 27.6987 28.5531 27.1981C29.1022 26.0046 29.8969 23.4293 30.147 20.5394C39.3999 18.5102 44.1366 14.6659 44.2253 14.5924L44.2257 14.5923L44.2257 14.592H44.2261H44.2266C44.2266 14.592 44.2274 14.592 44.2274 14.5912C44.236 14.5838 44.2442 14.576 44.2516 14.5673L44.252 14.5669C44.2779 14.5365 44.2951 14.4979 44.2992 14.4552C44.3005 14.4462 44.3005 14.4372 44.3005 14.4281C44.2992 14.3883 44.2861 14.3509 44.2656 14.3197ZM24.4431 27.5135C24.2086 27.6071 23.9277 27.6523 23.5848 27.6523C23.2423 27.6523 22.9614 27.6071 22.7256 27.5131C22.0575 27.2527 21.4505 26.9254 20.9203 26.5398L20.8164 26.4662C20.1294 25.9903 19.6086 25.2921 19.3064 24.4667C21.1142 23.6231 23.0053 22.6104 24.9355 21.3845C26.2234 20.5665 27.4759 19.8548 28.6887 19.224V20.6149C28.6887 20.7 28.685 20.785 28.6788 20.87C28.6607 21.1004 28.6283 21.3344 28.5819 21.5661L28.0365 23.8995C27.7917 24.9726 27.1942 25.8847 26.3531 26.4671L26.2484 26.541C25.7195 26.9254 25.1125 27.2527 24.4431 27.5135ZM30.5408 18.3028L30.2242 18.8293L30.2246 18.7427C30.2251 18.6465 30.2257 18.5506 30.2238 18.454L30.3293 18.4034C30.4001 18.3694 30.4708 18.3355 30.5408 18.3028ZM30.2143 19.4437L31.0357 18.077C31.1708 18.0158 31.3051 17.955 31.4389 17.8959L30.1897 19.9751C30.2003 19.7989 30.2082 19.6215 30.2143 19.4437ZM30.5112 20.0384L31.926 17.684C32.0587 17.6273 32.1892 17.5727 32.3203 17.518L30.8566 19.9538C30.8037 19.9662 30.7521 19.9792 30.7004 19.9922L30.7002 19.9923C30.6381 20.0079 30.5758 20.0236 30.5112 20.0384ZM31.2775 19.8507L32.7979 17.3205C32.901 17.2788 33.0027 17.239 33.1044 17.1991L33.1044 17.1991L33.1843 17.1677L31.6229 19.7661C31.5515 19.7845 31.4786 19.802 31.4056 19.8196L31.4054 19.8196C31.3627 19.8299 31.32 19.8402 31.2775 19.8507ZM32.0476 19.6572L33.6525 16.9866C33.7802 16.9382 33.9075 16.8901 34.0332 16.8437L32.4012 19.5595C32.3544 19.5723 32.3083 19.5853 32.2622 19.5982L32.2621 19.5982C32.1913 19.6182 32.1205 19.6381 32.0476 19.6572ZM32.832 19.4404L34.4923 16.6782L34.5461 16.659L34.5462 16.659C34.6535 16.6206 34.7609 16.5822 34.8664 16.5456L33.1855 19.3427C33.1198 19.3618 33.0515 19.3803 32.9831 19.3989C32.9324 19.4126 32.8817 19.4264 32.832 19.4404ZM33.6258 19.2076L35.3174 16.3928C35.441 16.3517 35.5625 16.3119 35.6841 16.2725L33.9872 19.0959C33.8677 19.1332 33.7478 19.1706 33.6258 19.2076ZM34.4287 18.9599L36.1289 16.1308C36.2166 16.1036 36.3026 16.0777 36.3884 16.0519L36.3886 16.0518L36.489 16.0215L34.7983 18.8351C34.7492 18.8515 34.7009 18.868 34.6527 18.8846L34.6526 18.8846C34.579 18.9099 34.5053 18.9351 34.4287 18.9599ZM35.2504 18.6811L36.926 15.893C37.0451 15.8585 37.1646 15.824 37.2812 15.7916L35.6204 18.5554C35.5568 18.5777 35.4907 18.5999 35.4243 18.6221C35.366 18.6417 35.3075 18.6613 35.2504 18.6811ZM36.0829 18.3829L37.71 15.6753C37.8278 15.6441 37.9445 15.6133 38.0599 15.5838L36.4623 18.2416C36.3718 18.2761 36.2792 18.3103 36.1862 18.3447L36.1862 18.3447L36.0829 18.3829ZM36.9305 18.0605L38.4833 15.4774C38.5716 15.4559 38.658 15.4356 38.744 15.4155L38.7441 15.4155L38.8266 15.3961L37.3198 17.9033L37.199 17.9523L37.1988 17.9524C37.1104 17.9883 37.0216 18.0244 36.9305 18.0605ZM37.7958 17.709L39.2426 15.3016C39.3568 15.2762 39.4705 15.2511 39.5814 15.2277L38.1954 17.5345C38.1419 17.5577 38.0893 17.5809 38.0366 17.6041C37.9577 17.6389 37.8785 17.6738 37.7958 17.709ZM38.6824 17.3217L39.9917 15.1431C40.1054 15.1205 40.2151 15.1 40.3247 15.0794L39.0927 17.1295C39.0513 17.149 39.0105 17.1684 38.9698 17.1877C38.8757 17.2323 38.7822 17.2767 38.6824 17.3217ZM39.5937 16.8938L40.7276 15.0068C40.8393 14.987 40.9485 14.9686 41.0553 14.9513L40.0143 16.6835C39.9681 16.7066 39.9224 16.7297 39.8765 16.7528C39.7844 16.7993 39.6916 16.8461 39.5937 16.8938ZM40.5338 16.417L41.4524 14.8885C41.5629 14.8721 41.6709 14.856 41.7752 14.8417L40.967 16.1866C40.8286 16.2622 40.6816 16.3394 40.5338 16.417ZM41.9621 15.6191C41.8179 15.7049 41.668 15.7928 41.5079 15.884L42.1654 14.7903C42.2754 14.7768 42.3814 14.764 42.4824 14.753L41.9621 15.6191ZM42.5305 15.2712L42.8656 14.7135C43.0841 14.693 43.2787 14.6774 43.4409 14.6667C43.2147 14.8269 42.9046 15.0347 42.5305 15.2712ZM23.6304 25.1258C23.8275 25.1258 24.0193 25.0268 24.0193 25.0268C24.6981 24.6671 25.0341 25.15 25.0341 25.15C25.0341 25.15 24.4184 26.1447 23.6308 26.1365C22.8431 26.1447 22.2275 25.15 22.2275 25.15C22.2275 25.15 22.5626 24.6671 23.2415 25.0268C23.2415 25.0268 23.4332 25.1258 23.6304 25.1258Z" fill="#232F3E"/>
</svg>
